<svg version="1.1" xmlns="http://www.w3.org/2000/svg" viewBox="192 20 1689.333 1092" width="1689.333" height="1092" preserveAspectRatio="none">
<path transform="translate(0,0)" fill="rgb(255, 255, 255)" d="M 923.724 346.498 L 926.772 346.835 L 926.424 348.426 C 922.009 353.318 917.559 355.612 912.91 359.765 C 876.667 392.14 839.618 423.966 803.035 456.06 C 800.876 457.954 798.338 459.265 795.502 459.697 L 794.824 459.795 C 785.293 461.251 753.466 460.168 741.676 460.223 L 605.841 460.112 C 556.057 460.066 518.219 456.506 471.905 477.879 C 433.285 495.7 398.179 524.239 382.754 563.549 C 365.798 609.135 380.104 648.112 424.684 668.85 C 471.429 690.595 526.234 679.654 576.686 682.595 C 587.403 683.219 659.158 683.738 665.459 681.474 C 669.875 671.212 671.895 661.093 675.395 650.794 C 679.678 638.195 682.305 630.924 685.212 617.806 L 684.131 616.162 C 679.131 614.581 627.498 615.204 618.904 615.2 L 453.612 615.136 C 458.893 610.928 473.985 595.087 480.066 589.37 L 555.158 518.648 L 767.503 518.438 L 825.5 518.569 C 834.383 518.596 849.89 518.164 858 519.393 C 857.527 522.202 850.184 544.253 848.995 546.259 C 846.58 559.276 836.827 586.783 832.598 600.907 L 786.972 748.306 C 784.47 756.497 773.533 790.058 773.502 796.512 C 767.494 796.84 761.019 796.868 754.964 796.95 C 686.667 797.455 618.367 797.615 550.068 797.433 C 517.684 797.426 485.267 797.184 452.887 797.362 C 386.008 797.731 314.467 774.833 265.872 727.308 C 239.295 701.241 224.203 665.657 223.937 628.431 C 223.513 570.99 262.281 507.481 300.815 467.103 C 368.956 395.702 466.19 353.103 564.377 347.513 C 581.364 346.546 598.732 346.831 615.945 346.856 L 696.749 346.968 L 923.724 346.498 z"/>
<path transform="translate(0,0)" fill="rgb(255, 255, 255)" d="M 1053.96 345.504 L 1479.29 345.033 C 1451.49 368.255 1424.43 393.846 1396.77 417.337 C 1389.45 423.548 1366.69 445.048 1359.35 448.941 L 1282.78 449.105 L 1279.53 456.833 L 1142.88 456.789 C 1128.36 456.787 1087.9 455.941 1075.87 457.856 C 1071.22 461.044 1067.82 479.358 1065.4 485.399 C 1062.64 492.267 1053.92 511.685 1056.31 518.32 C 1063.05 519.49 1110.31 518.856 1119.21 518.855 L 1232.44 518.871 C 1254 518.882 1278.39 518.332 1299.65 519.447 C 1304.67 524.945 1320.86 541.809 1322.98 547.569 C 1319.2 551.606 1289.76 578.381 1285.98 580.659 C 1281.87 585.338 1238.36 623.407 1235.89 623.577 C 1174.9 627.76 1110.48 624.137 1048.92 625.221 C 1040.63 625.367 1030.46 624.461 1023.24 626.911 C 1017.35 634.333 995.515 710.981 991.235 723.888 C 983.971 745.795 974.784 774.085 968.129 796.556 C 936.875 797.452 904.877 797.064 873.566 797.254 C 865.287 797.304 835.8 797.714 828.94 796.413 C 828.895 796.258 828.843 796.106 828.805 795.948 C 827.798 791.708 855.699 708.122 860.164 693.887 C 886.905 611.057 912.926 527.996 938.225 444.714 C 943.651 427.136 948.939 408.903 954.918 391.471 C 958.172 381.981 963.867 354.677 968.461 347.295 C 975.562 346.121 990.768 346.462 998.586 346.35 L 1053.96 345.504 z"/>
<path transform="translate(0,0)" fill="rgb(240, 185, 11)" d="M 1691.27 473.714 L 1849.68 473.724 C 1830.77 485.54 1815.37 496.933 1797.4 509.334 L 1714.97 566.242 C 1705.55 572.757 1631.68 620.615 1631.13 625.528 C 1636.92 634.238 1653.46 652.376 1661.14 661.327 L 1719.84 729.572 C 1732.98 744.921 1746.21 760.197 1759.52 775.401 C 1765.13 781.836 1770.86 789.705 1776.9 795.24 L 1776.15 796.155 C 1765.61 797.281 1746.43 796.718 1735.32 796.708 L 1661.5 796.597 L 1599.56 796.532 C 1594.08 790.979 1583.55 776.781 1578.17 770.168 L 1531.54 713.189 C 1526.86 707.478 1514.79 691.841 1509.43 688.164 C 1498.43 692.468 1467.93 715.733 1456.39 723.806 C 1421.17 748.448 1386.35 773.93 1350.4 797.602 C 1301.4 798.712 1248.99 797.679 1199.6 797.933 C 1217.67 782.721 1256.15 756.521 1276.42 742.206 L 1391.81 659.469 C 1396.85 655.89 1439.84 627.014 1441.11 624.681 C 1438.92 619.361 1422.44 601.569 1417.59 596.105 C 1395.09 570.524 1372.45 545.063 1349.67 519.724 C 1340.59 509.656 1331.93 500.528 1323.4 489.978 C 1318.54 483.963 1315.93 483.579 1310.97 475.252 C 1321.35 473.806 1368.05 474.524 1381.08 474.504 C 1416.05 474.188 1458.79 473.322 1493.41 474.594 L 1534.91 526.406 C 1537.84 530.115 1561.78 562.17 1564.68 560.762 C 1590.48 548.241 1615.5 527.042 1639.47 510.55 C 1651.21 502.477 1683.06 482.384 1691.27 473.714 z"/>
<path transform="translate(0,0)" fill="rgb(240, 185, 11)" d="M 328.654 811.926 C 329.212 812.767 332.047 857.974 333.804 866.006 C 336.305 877.435 341.683 890.014 347.355 900.238 C 373.068 946.586 422.381 973.892 472.058 988.059 C 657.536 1040.95 937.363 959.13 1113.4 890.612 C 1157.54 873.432 1209.27 853.675 1250.33 830.761 C 1271.46 830.43 1292.6 830.311 1313.74 830.404 C 1298.21 840.949 1275.43 857.592 1259.53 866.147 C 1252.72 871.504 1238.44 879.051 1230.63 883.724 C 1195.04 905.167 1158.27 924.57 1120.48 941.838 C 937.47 1027.59 709.846 1102.64 505.139 1073.3 C 384.44 1056 292.03 974.318 320.391 846.363 C 322.588 836.455 327.009 821.991 328.513 812.813 L 328.654 811.926 z"/>
<path transform="translate(0,0)" fill="rgb(240, 185, 11)" d="M 1416.97 53.5295 C 1424.82 52.1134 1438.78 52.9634 1447.3 52.7889 C 1530.42 51.0868 1652 63.2549 1702.33 138.413 L 1701.48 138.756 C 1687.99 125.5 1647.56 110.638 1629.11 105.545 C 1464.97 60.2238 1229.72 133.048 1077.6 196.826 C 1039.34 212.866 999.769 229.618 963.647 250.037 C 920.724 273.488 877.436 293.784 835.253 320.467 L 696.944 320.599 C 781.871 265.555 868.953 214.568 961.68 173.588 C 1014.96 150.675 1069.33 130.384 1124.59 112.791 C 1175.16 96.2455 1226.67 82.6985 1278.84 72.2202 C 1309.6 66.3996 1340.55 61.5659 1371.62 57.7276 C 1385.61 56.1306 1403.02 55.5406 1416.31 53.6284 L 1416.97 53.5295 z"/>
<path transform="translate(0,0)" fill="rgb(255, 255, 255)" d="M 1466.06 126.365 C 1477.36 125.418 1489.74 126.23 1501.28 125.924 C 1576.7 125.182 1688.28 137.933 1718.61 220.12 C 1722.25 229.971 1727.04 252.589 1726.22 263.266 C 1719.7 348.589 1655.37 421.08 1596.89 478.516 C 1594.54 480.82 1582.44 492.836 1581.07 493.312 C 1580.68 486.199 1616.81 418.74 1617.07 402.721 C 1620.2 396.63 1621.21 387.085 1623.08 380.396 C 1636.53 332.185 1633.71 277.519 1596.1 239.556 C 1513.83 156.533 1372.81 156.668 1263.88 167.191 C 1257.67 167.79 1250.65 170.092 1244.54 169.851 C 1246.75 167.367 1322.91 149.74 1332.87 147.132 C 1349.48 142.785 1380.61 137.386 1398.2 134.683 C 1412.37 132.572 1426.57 130.741 1440.81 129.192 C 1448.75 128.347 1457.21 128.127 1464.94 126.593 L 1466.06 126.365 z"/>
<path transform="translate(0,0)" fill="rgb(255, 255, 255)" d="M 369.888 793.467 C 377.998 796.118 396.114 799.633 405.308 801.929 C 405.701 805.62 406.416 809.269 407.443 812.836 C 416.995 847.256 448.504 877.123 479.39 894.159 C 560.676 938.996 662.53 944.839 753.58 944.878 C 760.433 944.881 796.197 943.987 799.897 942.956 C 802.528 943.093 810.495 943.224 812.365 944.203 L 802.672 944.27 L 802.509 944.97 C 804.796 945.421 812.837 946.318 813.68 947.134 C 810.778 948.451 787.879 952.538 782.827 953.51 C 717.995 965.841 661.01 972.448 594.324 970.931 C 504.507 968.888 381.855 942.604 369.81 834.199 C 368.478 822.217 369.68 805.792 369.888 793.467 z"/>
<path transform="translate(0,0)" fill="rgb(255, 255, 255)" fill-opacity="0.945098" d="M 855.662 937.933 L 849.914 940.228 C 838.163 941.6 825.86 945.531 813.68 947.134 C 812.837 946.318 804.796 945.421 802.509 944.97 L 802.672 944.27 L 812.365 944.203 C 810.495 943.224 802.528 943.093 799.897 942.956 C 806.515 940.768 845.855 938.771 855.662 937.933 z"/>
</svg>
